<?xml version="1.0" encoding="UTF-8"?><svg id="_圖層_2" xmlns="http://www.w3.org/2000/svg" viewBox="0 0 397.14 400.91"><defs><style>.cls-1{fill:#fff;}</style></defs><g id="_圖層_1-2"><rect class="cls-1" width="397.14" height="400.91" rx="98.1" ry="98.1"/><path d="m264.96,247.18c1.47,23.76-17.36,43.48-40.79,43.48-4.59,0-100.74,2.75-129.79,1.04-9.15-.54-10.01-13.72-1.01-15.42,9.48-1.8,60.07-.25,84.53-.58,13.61-.18,8.37-10.53,8.1-11.23-1.75-4.55-2.71-9.5-2.71-14.67,0-23.44,19.73-42.27,43.48-40.79,20.36,1.26,36.92,17.83,38.19,38.19Z"/><path d="m247.13,209.82h0c-14.26-6.62-20.45-23.55-13.83-37.81l30.25-60.38c.92-1.83,2.79-2.98,4.83-2.98h36.3c3.64,0,6.24,3.53,5.16,7l-24.77,79.91c-.09.29-.2.58-.33.85-6.76,13.97-23.49,19.98-37.62,13.42Z"/></g></svg>